<mxfile host="Electron" modified="2024-07-23T12:33:34.801Z" agent="Mozilla/5.0 (Windows NT 10.0; Win64; x64) AppleWebKit/537.36 (KHTML, like Gecko) draw.io/24.5.3 Chrome/124.0.6367.207 Electron/30.0.6 Safari/537.36" etag="J_7l9_Z0yQBVqt2E1EkM" version="24.5.3" type="device">
  <diagram name="Page-1" id="JsKRYiDFAyM9Nw3sJ8iw">
    <mxGraphModel dx="523" dy="413" grid="1" gridSize="10" guides="1" tooltips="1" connect="1" arrows="1" fold="1" page="1" pageScale="1" pageWidth="827" pageHeight="1169" math="1" shadow="0">
      <root>
        <mxCell id="0" />
        <mxCell id="1" parent="0" />
        <mxCell id="niFpArM0iKwGJYIAcRbO-37" value="$$\text{Frequency}$$" style="text;strokeColor=none;align=center;fillColor=none;html=1;verticalAlign=middle;whiteSpace=wrap;rounded=0;" parent="1" vertex="1">
          <mxGeometry x="560" y="230" width="120" height="30" as="geometry" />
        </mxCell>
        <mxCell id="1xcKM1rpYor_6Y90ffc0-1" value="" style="rounded=0;whiteSpace=wrap;html=1;fillStyle=hatch;fillColor=#1C1C1C;strokeColor=none;strokeWidth=0.25;" parent="1" vertex="1">
          <mxGeometry x="200" y="120" width="110" height="80" as="geometry" />
        </mxCell>
        <mxCell id="1xcKM1rpYor_6Y90ffc0-2" value="" style="endArrow=classic;html=1;rounded=0;" parent="1" edge="1">
          <mxGeometry width="50" height="50" relative="1" as="geometry">
            <mxPoint x="200" y="200" as="sourcePoint" />
            <mxPoint x="200" y="80" as="targetPoint" />
          </mxGeometry>
        </mxCell>
        <mxCell id="1xcKM1rpYor_6Y90ffc0-3" value="" style="endArrow=classic;html=1;rounded=0;" parent="1" edge="1">
          <mxGeometry width="50" height="50" relative="1" as="geometry">
            <mxPoint x="200" y="200" as="sourcePoint" />
            <mxPoint x="440" y="200" as="targetPoint" />
          </mxGeometry>
        </mxCell>
        <mxCell id="1xcKM1rpYor_6Y90ffc0-7" value="$$f_c$$" style="text;strokeColor=none;align=center;fillColor=none;html=1;verticalAlign=middle;whiteSpace=wrap;rounded=0;" parent="1" vertex="1">
          <mxGeometry x="290" y="200" width="40" height="30" as="geometry" />
        </mxCell>
        <mxCell id="1xcKM1rpYor_6Y90ffc0-8" value="$$f_s$$" style="text;strokeColor=none;align=center;fillColor=none;html=1;verticalAlign=middle;whiteSpace=wrap;rounded=0;" parent="1" vertex="1">
          <mxGeometry x="370" y="200" width="60" height="30" as="geometry" />
        </mxCell>
        <mxCell id="1xcKM1rpYor_6Y90ffc0-9" value="$$0$$" style="text;strokeColor=none;align=center;fillColor=none;html=1;verticalAlign=middle;whiteSpace=wrap;rounded=0;" parent="1" vertex="1">
          <mxGeometry x="170" y="200" width="60" height="30" as="geometry" />
        </mxCell>
        <mxCell id="1xcKM1rpYor_6Y90ffc0-10" value="$$1$$" style="text;strokeColor=none;align=center;fillColor=none;html=1;verticalAlign=middle;whiteSpace=wrap;rounded=0;" parent="1" vertex="1">
          <mxGeometry x="160" y="100" width="40" height="40" as="geometry" />
        </mxCell>
        <mxCell id="1xcKM1rpYor_6Y90ffc0-11" value="$$\text{Frequency}$$" style="text;strokeColor=none;align=center;fillColor=none;html=1;verticalAlign=middle;whiteSpace=wrap;rounded=0;" parent="1" vertex="1">
          <mxGeometry x="240" y="230" width="120" height="30" as="geometry" />
        </mxCell>
        <mxCell id="1xcKM1rpYor_6Y90ffc0-12" value="$$\text{Gain}$$" style="text;strokeColor=none;align=center;fillColor=none;html=1;verticalAlign=middle;whiteSpace=wrap;rounded=0;rotation=90;" parent="1" vertex="1">
          <mxGeometry x="110" y="140" width="90" height="30" as="geometry" />
        </mxCell>
        <mxCell id="1xcKM1rpYor_6Y90ffc0-13" value="" style="endArrow=none;html=1;rounded=0;" parent="1" edge="1">
          <mxGeometry width="50" height="50" relative="1" as="geometry">
            <mxPoint x="400" y="200" as="sourcePoint" />
            <mxPoint x="400" y="190" as="targetPoint" />
          </mxGeometry>
        </mxCell>
        <mxCell id="niFpArM0iKwGJYIAcRbO-1" value="" style="rounded=0;whiteSpace=wrap;html=1;fillStyle=hatch;fillColor=#1C1C1C;strokeColor=none;strokeWidth=0.25;" parent="1" vertex="1">
          <mxGeometry x="310" y="320" width="90" height="80" as="geometry" />
        </mxCell>
        <mxCell id="niFpArM0iKwGJYIAcRbO-2" value="" style="endArrow=classic;html=1;rounded=0;" parent="1" edge="1">
          <mxGeometry width="50" height="50" relative="1" as="geometry">
            <mxPoint x="200" y="400" as="sourcePoint" />
            <mxPoint x="200" y="280" as="targetPoint" />
          </mxGeometry>
        </mxCell>
        <mxCell id="niFpArM0iKwGJYIAcRbO-3" value="" style="endArrow=classic;html=1;rounded=0;" parent="1" edge="1">
          <mxGeometry width="50" height="50" relative="1" as="geometry">
            <mxPoint x="200" y="400" as="sourcePoint" />
            <mxPoint x="440" y="400" as="targetPoint" />
          </mxGeometry>
        </mxCell>
        <mxCell id="niFpArM0iKwGJYIAcRbO-4" value="$$f_c$$" style="text;strokeColor=none;align=center;fillColor=none;html=1;verticalAlign=middle;whiteSpace=wrap;rounded=0;" parent="1" vertex="1">
          <mxGeometry x="290" y="400" width="40" height="30" as="geometry" />
        </mxCell>
        <mxCell id="niFpArM0iKwGJYIAcRbO-5" value="$$f_s$$" style="text;strokeColor=none;align=center;fillColor=none;html=1;verticalAlign=middle;whiteSpace=wrap;rounded=0;" parent="1" vertex="1">
          <mxGeometry x="370" y="400" width="60" height="30" as="geometry" />
        </mxCell>
        <mxCell id="niFpArM0iKwGJYIAcRbO-6" value="$$0$$" style="text;strokeColor=none;align=center;fillColor=none;html=1;verticalAlign=middle;whiteSpace=wrap;rounded=0;" parent="1" vertex="1">
          <mxGeometry x="170" y="400" width="60" height="30" as="geometry" />
        </mxCell>
        <mxCell id="niFpArM0iKwGJYIAcRbO-7" value="$$1$$" style="text;strokeColor=none;align=center;fillColor=none;html=1;verticalAlign=middle;whiteSpace=wrap;rounded=0;" parent="1" vertex="1">
          <mxGeometry x="160" y="300" width="40" height="40" as="geometry" />
        </mxCell>
        <mxCell id="niFpArM0iKwGJYIAcRbO-8" value="$$\text{Frequency}$$" style="text;strokeColor=none;align=center;fillColor=none;html=1;verticalAlign=middle;whiteSpace=wrap;rounded=0;" parent="1" vertex="1">
          <mxGeometry x="240" y="430" width="120" height="30" as="geometry" />
        </mxCell>
        <mxCell id="niFpArM0iKwGJYIAcRbO-9" value="$$\text{Gain}$$" style="text;strokeColor=none;align=center;fillColor=none;html=1;verticalAlign=middle;whiteSpace=wrap;rounded=0;rotation=90;" parent="1" vertex="1">
          <mxGeometry x="110" y="340" width="90" height="30" as="geometry" />
        </mxCell>
        <mxCell id="niFpArM0iKwGJYIAcRbO-10" value="" style="endArrow=none;html=1;rounded=0;" parent="1" edge="1">
          <mxGeometry width="50" height="50" relative="1" as="geometry">
            <mxPoint x="400" y="400" as="sourcePoint" />
            <mxPoint x="400" y="390" as="targetPoint" />
          </mxGeometry>
        </mxCell>
        <mxCell id="niFpArM0iKwGJYIAcRbO-11" value="" style="endArrow=none;html=1;rounded=0;entryX=0;entryY=0;entryDx=0;entryDy=0;" parent="1" target="niFpArM0iKwGJYIAcRbO-1" edge="1">
          <mxGeometry width="50" height="50" relative="1" as="geometry">
            <mxPoint x="310" y="400" as="sourcePoint" />
            <mxPoint x="360" y="350" as="targetPoint" />
          </mxGeometry>
        </mxCell>
        <mxCell id="niFpArM0iKwGJYIAcRbO-12" value="" style="endArrow=none;html=1;rounded=0;entryX=1;entryY=0;entryDx=0;entryDy=0;" parent="1" target="niFpArM0iKwGJYIAcRbO-1" edge="1">
          <mxGeometry width="50" height="50" relative="1" as="geometry">
            <mxPoint x="310" y="320" as="sourcePoint" />
            <mxPoint x="360" y="270" as="targetPoint" />
          </mxGeometry>
        </mxCell>
        <mxCell id="niFpArM0iKwGJYIAcRbO-14" value="" style="endArrow=none;dashed=1;html=1;rounded=0;" parent="1" edge="1">
          <mxGeometry width="50" height="50" relative="1" as="geometry">
            <mxPoint x="400" y="320" as="sourcePoint" />
            <mxPoint x="430" y="320" as="targetPoint" />
          </mxGeometry>
        </mxCell>
        <mxCell id="niFpArM0iKwGJYIAcRbO-15" value="" style="rounded=0;whiteSpace=wrap;html=1;fillStyle=hatch;fillColor=#e0e0e0;strokeColor=none;fontColor=#333333;strokeWidth=0.25;" parent="1" vertex="1">
          <mxGeometry x="400" y="320" width="30" height="80" as="geometry" />
        </mxCell>
        <mxCell id="niFpArM0iKwGJYIAcRbO-16" value="" style="rounded=0;whiteSpace=wrap;html=1;fillStyle=hatch;fillColor=#1C1C1C;strokeColor=none;strokeWidth=0.25;" parent="1" vertex="1">
          <mxGeometry x="660" y="320" width="60" height="80" as="geometry" />
        </mxCell>
        <mxCell id="niFpArM0iKwGJYIAcRbO-17" value="" style="endArrow=classic;html=1;rounded=0;" parent="1" edge="1">
          <mxGeometry width="50" height="50" relative="1" as="geometry">
            <mxPoint x="520" y="400" as="sourcePoint" />
            <mxPoint x="520" y="280" as="targetPoint" />
          </mxGeometry>
        </mxCell>
        <mxCell id="niFpArM0iKwGJYIAcRbO-18" value="" style="endArrow=classic;html=1;rounded=0;" parent="1" edge="1">
          <mxGeometry width="50" height="50" relative="1" as="geometry">
            <mxPoint x="520" y="400" as="sourcePoint" />
            <mxPoint x="760" y="400" as="targetPoint" />
          </mxGeometry>
        </mxCell>
        <mxCell id="niFpArM0iKwGJYIAcRbO-19" value="$$f_h$$" style="text;strokeColor=none;align=center;fillColor=none;html=1;verticalAlign=middle;whiteSpace=wrap;rounded=0;" parent="1" vertex="1">
          <mxGeometry x="640" y="400" width="40" height="30" as="geometry" />
        </mxCell>
        <mxCell id="niFpArM0iKwGJYIAcRbO-20" value="$$f_s$$" style="text;strokeColor=none;align=center;fillColor=none;html=1;verticalAlign=middle;whiteSpace=wrap;rounded=0;" parent="1" vertex="1">
          <mxGeometry x="690" y="400" width="60" height="30" as="geometry" />
        </mxCell>
        <mxCell id="niFpArM0iKwGJYIAcRbO-21" value="$$0$$" style="text;strokeColor=none;align=center;fillColor=none;html=1;verticalAlign=middle;whiteSpace=wrap;rounded=0;" parent="1" vertex="1">
          <mxGeometry x="490" y="400" width="60" height="30" as="geometry" />
        </mxCell>
        <mxCell id="niFpArM0iKwGJYIAcRbO-22" value="$$1$$" style="text;strokeColor=none;align=center;fillColor=none;html=1;verticalAlign=middle;whiteSpace=wrap;rounded=0;" parent="1" vertex="1">
          <mxGeometry x="480" y="300" width="40" height="40" as="geometry" />
        </mxCell>
        <mxCell id="niFpArM0iKwGJYIAcRbO-23" value="$$\text{Frequency}$$" style="text;strokeColor=none;align=center;fillColor=none;html=1;verticalAlign=middle;whiteSpace=wrap;rounded=0;" parent="1" vertex="1">
          <mxGeometry x="560" y="430" width="120" height="30" as="geometry" />
        </mxCell>
        <mxCell id="niFpArM0iKwGJYIAcRbO-24" value="$$\text{Gain}$$" style="text;strokeColor=none;align=center;fillColor=none;html=1;verticalAlign=middle;whiteSpace=wrap;rounded=0;rotation=90;" parent="1" vertex="1">
          <mxGeometry x="430" y="340" width="90" height="30" as="geometry" />
        </mxCell>
        <mxCell id="niFpArM0iKwGJYIAcRbO-25" value="" style="endArrow=none;html=1;rounded=0;" parent="1" edge="1">
          <mxGeometry width="50" height="50" relative="1" as="geometry">
            <mxPoint x="720" y="400" as="sourcePoint" />
            <mxPoint x="720" y="390" as="targetPoint" />
          </mxGeometry>
        </mxCell>
        <mxCell id="niFpArM0iKwGJYIAcRbO-26" value="" style="endArrow=none;html=1;rounded=0;entryX=0;entryY=0;entryDx=0;entryDy=0;" parent="1" target="niFpArM0iKwGJYIAcRbO-16" edge="1">
          <mxGeometry width="50" height="50" relative="1" as="geometry">
            <mxPoint x="660" y="400" as="sourcePoint" />
            <mxPoint x="670" y="320" as="targetPoint" />
          </mxGeometry>
        </mxCell>
        <mxCell id="niFpArM0iKwGJYIAcRbO-27" value="" style="endArrow=none;html=1;rounded=0;entryX=1;entryY=0;entryDx=0;entryDy=0;exitX=0;exitY=0;exitDx=0;exitDy=0;" parent="1" source="niFpArM0iKwGJYIAcRbO-16" target="niFpArM0iKwGJYIAcRbO-16" edge="1">
          <mxGeometry width="50" height="50" relative="1" as="geometry">
            <mxPoint x="670" y="321" as="sourcePoint" />
            <mxPoint x="680" y="270" as="targetPoint" />
          </mxGeometry>
        </mxCell>
        <mxCell id="niFpArM0iKwGJYIAcRbO-28" value="" style="endArrow=none;dashed=1;html=1;rounded=0;" parent="1" edge="1">
          <mxGeometry width="50" height="50" relative="1" as="geometry">
            <mxPoint x="720" y="320" as="sourcePoint" />
            <mxPoint x="750" y="320" as="targetPoint" />
          </mxGeometry>
        </mxCell>
        <mxCell id="niFpArM0iKwGJYIAcRbO-29" value="" style="rounded=0;whiteSpace=wrap;html=1;fillStyle=hatch;fillColor=#e0e0e0;strokeColor=none;fontColor=#333333;strokeWidth=0.25;" parent="1" vertex="1">
          <mxGeometry x="720" y="320" width="30" height="80" as="geometry" />
        </mxCell>
        <mxCell id="niFpArM0iKwGJYIAcRbO-30" value="" style="rounded=0;whiteSpace=wrap;html=1;fillStyle=hatch;fillColor=#1C1C1C;strokeColor=none;strokeWidth=0.25;" parent="1" vertex="1">
          <mxGeometry x="600" y="120" width="60" height="80" as="geometry" />
        </mxCell>
        <mxCell id="niFpArM0iKwGJYIAcRbO-31" value="" style="endArrow=classic;html=1;rounded=0;" parent="1" edge="1">
          <mxGeometry width="50" height="50" relative="1" as="geometry">
            <mxPoint x="520" y="200" as="sourcePoint" />
            <mxPoint x="520" y="80" as="targetPoint" />
          </mxGeometry>
        </mxCell>
        <mxCell id="niFpArM0iKwGJYIAcRbO-32" value="" style="endArrow=classic;html=1;rounded=0;" parent="1" edge="1">
          <mxGeometry width="50" height="50" relative="1" as="geometry">
            <mxPoint x="520" y="200" as="sourcePoint" />
            <mxPoint x="760" y="200" as="targetPoint" />
          </mxGeometry>
        </mxCell>
        <mxCell id="niFpArM0iKwGJYIAcRbO-33" value="$$f_h$$" style="text;strokeColor=none;align=center;fillColor=none;html=1;verticalAlign=middle;whiteSpace=wrap;rounded=0;" parent="1" vertex="1">
          <mxGeometry x="640" y="200" width="40" height="30" as="geometry" />
        </mxCell>
        <mxCell id="niFpArM0iKwGJYIAcRbO-34" value="$$f_s$$" style="text;strokeColor=none;align=center;fillColor=none;html=1;verticalAlign=middle;whiteSpace=wrap;rounded=0;" parent="1" vertex="1">
          <mxGeometry x="690" y="200" width="60" height="30" as="geometry" />
        </mxCell>
        <mxCell id="niFpArM0iKwGJYIAcRbO-35" value="$$0$$" style="text;strokeColor=none;align=center;fillColor=none;html=1;verticalAlign=middle;whiteSpace=wrap;rounded=0;" parent="1" vertex="1">
          <mxGeometry x="490" y="200" width="60" height="30" as="geometry" />
        </mxCell>
        <mxCell id="niFpArM0iKwGJYIAcRbO-36" value="$$1$$" style="text;strokeColor=none;align=center;fillColor=none;html=1;verticalAlign=middle;whiteSpace=wrap;rounded=0;" parent="1" vertex="1">
          <mxGeometry x="480" y="100" width="40" height="40" as="geometry" />
        </mxCell>
        <mxCell id="niFpArM0iKwGJYIAcRbO-38" value="$$\text{Gain}$$" style="text;strokeColor=none;align=center;fillColor=none;html=1;verticalAlign=middle;whiteSpace=wrap;rounded=0;rotation=90;" parent="1" vertex="1">
          <mxGeometry x="430" y="140" width="90" height="30" as="geometry" />
        </mxCell>
        <mxCell id="niFpArM0iKwGJYIAcRbO-39" value="" style="endArrow=none;html=1;rounded=0;" parent="1" edge="1">
          <mxGeometry width="50" height="50" relative="1" as="geometry">
            <mxPoint x="720" y="200" as="sourcePoint" />
            <mxPoint x="720" y="190" as="targetPoint" />
          </mxGeometry>
        </mxCell>
        <mxCell id="niFpArM0iKwGJYIAcRbO-40" value="" style="endArrow=none;html=1;rounded=0;" parent="1" edge="1">
          <mxGeometry width="50" height="50" relative="1" as="geometry">
            <mxPoint x="200" y="120" as="sourcePoint" />
            <mxPoint x="310" y="120" as="targetPoint" />
          </mxGeometry>
        </mxCell>
        <mxCell id="niFpArM0iKwGJYIAcRbO-41" value="" style="endArrow=none;html=1;rounded=0;entryX=1;entryY=0;entryDx=0;entryDy=0;" parent="1" target="1xcKM1rpYor_6Y90ffc0-1" edge="1">
          <mxGeometry width="50" height="50" relative="1" as="geometry">
            <mxPoint x="310" y="200" as="sourcePoint" />
            <mxPoint x="360" y="150" as="targetPoint" />
          </mxGeometry>
        </mxCell>
        <mxCell id="niFpArM0iKwGJYIAcRbO-42" value="$$f_l$$" style="text;strokeColor=none;align=center;fillColor=none;html=1;verticalAlign=middle;whiteSpace=wrap;rounded=0;" parent="1" vertex="1">
          <mxGeometry x="580" y="200" width="40" height="30" as="geometry" />
        </mxCell>
        <mxCell id="niFpArM0iKwGJYIAcRbO-43" value="$$f_l$$" style="text;strokeColor=none;align=center;fillColor=none;html=1;verticalAlign=middle;whiteSpace=wrap;rounded=0;" parent="1" vertex="1">
          <mxGeometry x="580" y="400" width="40" height="30" as="geometry" />
        </mxCell>
        <mxCell id="niFpArM0iKwGJYIAcRbO-44" value="" style="rounded=0;whiteSpace=wrap;html=1;fillStyle=hatch;fillColor=#1C1C1C;strokeColor=none;strokeWidth=0.25;" parent="1" vertex="1">
          <mxGeometry x="520" y="320" width="80" height="80" as="geometry" />
        </mxCell>
        <mxCell id="niFpArM0iKwGJYIAcRbO-45" value="" style="endArrow=none;html=1;rounded=0;entryX=1;entryY=0;entryDx=0;entryDy=0;" parent="1" target="niFpArM0iKwGJYIAcRbO-44" edge="1">
          <mxGeometry width="50" height="50" relative="1" as="geometry">
            <mxPoint x="520" y="320" as="sourcePoint" />
            <mxPoint x="630" y="320" as="targetPoint" />
          </mxGeometry>
        </mxCell>
        <mxCell id="niFpArM0iKwGJYIAcRbO-46" value="" style="endArrow=none;html=1;rounded=0;entryX=1;entryY=0;entryDx=0;entryDy=0;exitX=1;exitY=1;exitDx=0;exitDy=0;" parent="1" source="niFpArM0iKwGJYIAcRbO-44" target="niFpArM0iKwGJYIAcRbO-44" edge="1">
          <mxGeometry width="50" height="50" relative="1" as="geometry">
            <mxPoint x="630" y="400" as="sourcePoint" />
            <mxPoint x="680" y="350" as="targetPoint" />
          </mxGeometry>
        </mxCell>
        <mxCell id="niFpArM0iKwGJYIAcRbO-50" value="" style="endArrow=none;html=1;rounded=0;entryX=0;entryY=0;entryDx=0;entryDy=0;" parent="1" target="niFpArM0iKwGJYIAcRbO-30" edge="1">
          <mxGeometry width="50" height="50" relative="1" as="geometry">
            <mxPoint x="600" y="200" as="sourcePoint" />
            <mxPoint x="650" y="150" as="targetPoint" />
          </mxGeometry>
        </mxCell>
        <mxCell id="niFpArM0iKwGJYIAcRbO-51" value="" style="endArrow=none;html=1;rounded=0;entryX=1;entryY=0;entryDx=0;entryDy=0;" parent="1" target="niFpArM0iKwGJYIAcRbO-30" edge="1">
          <mxGeometry width="50" height="50" relative="1" as="geometry">
            <mxPoint x="600" y="120" as="sourcePoint" />
            <mxPoint x="650" y="70" as="targetPoint" />
          </mxGeometry>
        </mxCell>
        <mxCell id="niFpArM0iKwGJYIAcRbO-52" value="" style="endArrow=none;html=1;rounded=0;" parent="1" edge="1">
          <mxGeometry width="50" height="50" relative="1" as="geometry">
            <mxPoint x="660" y="120" as="sourcePoint" />
            <mxPoint x="660" y="200" as="targetPoint" />
          </mxGeometry>
        </mxCell>
      </root>
    </mxGraphModel>
  </diagram>
</mxfile>
